<mxfile host="app.diagrams.net" agent="Mozilla/5.0 (Windows NT 10.0; Win64; x64) AppleWebKit/537.36 (KHTML, like Gecko) Chrome/130.0.0.0 Safari/537.36" version="24.7.17">
  <diagram id="C5RBs43oDa-KdzZeNtuy" name="Page-1">
    <mxGraphModel dx="2684" dy="2156" grid="1" gridSize="10" guides="1" tooltips="1" connect="1" arrows="1" fold="1" page="1" pageScale="1" pageWidth="827" pageHeight="1169" math="0" shadow="0">
      <root>
        <mxCell id="WIyWlLk6GJQsqaUBKTNV-0" />
        <mxCell id="WIyWlLk6GJQsqaUBKTNV-1" parent="WIyWlLk6GJQsqaUBKTNV-0" />
        <mxCell id="ZbAeiwqcnRl_sLX5qr6F-3" value="Email" style="ellipse;whiteSpace=wrap;html=1;rounded=0;" vertex="1" parent="WIyWlLk6GJQsqaUBKTNV-1">
          <mxGeometry x="-230" y="-90" width="120" height="80" as="geometry" />
        </mxCell>
        <mxCell id="ZbAeiwqcnRl_sLX5qr6F-4" value="Account" style="rounded=0;whiteSpace=wrap;html=1;" vertex="1" parent="WIyWlLk6GJQsqaUBKTNV-1">
          <mxGeometry x="-300" y="10" width="120" height="60" as="geometry" />
        </mxCell>
        <mxCell id="ZbAeiwqcnRl_sLX5qr6F-6" value="" style="endArrow=none;html=1;rounded=0;entryX=0.5;entryY=1;entryDx=0;entryDy=0;exitX=0.75;exitY=0;exitDx=0;exitDy=0;" edge="1" parent="WIyWlLk6GJQsqaUBKTNV-1" source="ZbAeiwqcnRl_sLX5qr6F-4" target="ZbAeiwqcnRl_sLX5qr6F-3">
          <mxGeometry width="50" height="50" relative="1" as="geometry">
            <mxPoint x="-80" y="120" as="sourcePoint" />
            <mxPoint x="-30" y="70" as="targetPoint" />
          </mxGeometry>
        </mxCell>
        <mxCell id="ZbAeiwqcnRl_sLX5qr6F-12" value="&lt;u&gt;Id_User&lt;/u&gt;" style="ellipse;whiteSpace=wrap;html=1;rounded=0;" vertex="1" parent="WIyWlLk6GJQsqaUBKTNV-1">
          <mxGeometry x="-120" y="50" width="120" height="80" as="geometry" />
        </mxCell>
        <mxCell id="ZbAeiwqcnRl_sLX5qr6F-13" value="" style="endArrow=none;html=1;rounded=0;exitX=1;exitY=0.75;exitDx=0;exitDy=0;entryX=0;entryY=0.5;entryDx=0;entryDy=0;" edge="1" parent="WIyWlLk6GJQsqaUBKTNV-1" target="ZbAeiwqcnRl_sLX5qr6F-12" source="ZbAeiwqcnRl_sLX5qr6F-4">
          <mxGeometry width="50" height="50" relative="1" as="geometry">
            <mxPoint x="-150" y="60" as="sourcePoint" />
            <mxPoint x="-100" y="180" as="targetPoint" />
          </mxGeometry>
        </mxCell>
        <mxCell id="ZbAeiwqcnRl_sLX5qr6F-14" value="Username" style="ellipse;whiteSpace=wrap;html=1;rounded=0;" vertex="1" parent="WIyWlLk6GJQsqaUBKTNV-1">
          <mxGeometry x="-230" y="90" width="120" height="80" as="geometry" />
        </mxCell>
        <mxCell id="ZbAeiwqcnRl_sLX5qr6F-15" value="" style="endArrow=none;html=1;rounded=0;entryX=0.75;entryY=1;entryDx=0;entryDy=0;exitX=0.5;exitY=0;exitDx=0;exitDy=0;" edge="1" parent="WIyWlLk6GJQsqaUBKTNV-1" source="ZbAeiwqcnRl_sLX5qr6F-14" target="ZbAeiwqcnRl_sLX5qr6F-4">
          <mxGeometry width="50" height="50" relative="1" as="geometry">
            <mxPoint x="-360" y="150" as="sourcePoint" />
            <mxPoint x="-310" y="100" as="targetPoint" />
          </mxGeometry>
        </mxCell>
        <mxCell id="ZbAeiwqcnRl_sLX5qr6F-16" value="Password" style="ellipse;whiteSpace=wrap;html=1;rounded=0;" vertex="1" parent="WIyWlLk6GJQsqaUBKTNV-1">
          <mxGeometry x="-370" y="90" width="120" height="80" as="geometry" />
        </mxCell>
        <mxCell id="ZbAeiwqcnRl_sLX5qr6F-17" value="" style="endArrow=none;html=1;rounded=0;entryX=0.25;entryY=1;entryDx=0;entryDy=0;exitX=0.5;exitY=0;exitDx=0;exitDy=0;" edge="1" parent="WIyWlLk6GJQsqaUBKTNV-1" source="ZbAeiwqcnRl_sLX5qr6F-16" target="ZbAeiwqcnRl_sLX5qr6F-4">
          <mxGeometry width="50" height="50" relative="1" as="geometry">
            <mxPoint x="-250" y="70" as="sourcePoint" />
            <mxPoint x="-200" y="20" as="targetPoint" />
          </mxGeometry>
        </mxCell>
        <mxCell id="ZbAeiwqcnRl_sLX5qr6F-19" value="Jenis_Kelamin" style="ellipse;whiteSpace=wrap;html=1;rounded=0;" vertex="1" parent="WIyWlLk6GJQsqaUBKTNV-1">
          <mxGeometry x="-370" y="-90" width="120" height="80" as="geometry" />
        </mxCell>
        <mxCell id="ZbAeiwqcnRl_sLX5qr6F-21" value="" style="endArrow=none;html=1;rounded=0;entryX=0.5;entryY=1;entryDx=0;entryDy=0;exitX=0.25;exitY=0;exitDx=0;exitDy=0;" edge="1" parent="WIyWlLk6GJQsqaUBKTNV-1" source="ZbAeiwqcnRl_sLX5qr6F-4" target="ZbAeiwqcnRl_sLX5qr6F-19">
          <mxGeometry width="50" height="50" relative="1" as="geometry">
            <mxPoint x="-420" y="80" as="sourcePoint" />
            <mxPoint x="-370" y="30" as="targetPoint" />
          </mxGeometry>
        </mxCell>
        <mxCell id="ZbAeiwqcnRl_sLX5qr6F-22" value="Nomer_Telepon" style="ellipse;whiteSpace=wrap;html=1;rounded=0;" vertex="1" parent="WIyWlLk6GJQsqaUBKTNV-1">
          <mxGeometry x="-480" y="-50" width="120" height="80" as="geometry" />
        </mxCell>
        <mxCell id="ZbAeiwqcnRl_sLX5qr6F-23" value="" style="endArrow=none;html=1;rounded=0;exitX=1;exitY=0.5;exitDx=0;exitDy=0;entryX=0;entryY=0.25;entryDx=0;entryDy=0;" edge="1" parent="WIyWlLk6GJQsqaUBKTNV-1" source="ZbAeiwqcnRl_sLX5qr6F-22" target="ZbAeiwqcnRl_sLX5qr6F-4">
          <mxGeometry width="50" height="50" relative="1" as="geometry">
            <mxPoint x="-210" y="60" as="sourcePoint" />
            <mxPoint x="-160" y="10" as="targetPoint" />
          </mxGeometry>
        </mxCell>
        <mxCell id="ZbAeiwqcnRl_sLX5qr6F-24" value="Nama" style="ellipse;whiteSpace=wrap;html=1;rounded=0;" vertex="1" parent="WIyWlLk6GJQsqaUBKTNV-1">
          <mxGeometry x="-480" y="50" width="120" height="80" as="geometry" />
        </mxCell>
        <mxCell id="ZbAeiwqcnRl_sLX5qr6F-25" value="" style="endArrow=none;html=1;rounded=0;entryX=0;entryY=0.75;entryDx=0;entryDy=0;exitX=1;exitY=0.5;exitDx=0;exitDy=0;" edge="1" parent="WIyWlLk6GJQsqaUBKTNV-1" source="ZbAeiwqcnRl_sLX5qr6F-24" target="ZbAeiwqcnRl_sLX5qr6F-4">
          <mxGeometry width="50" height="50" relative="1" as="geometry">
            <mxPoint x="-550" y="260" as="sourcePoint" />
            <mxPoint x="-500" y="210" as="targetPoint" />
          </mxGeometry>
        </mxCell>
        <mxCell id="ZbAeiwqcnRl_sLX5qr6F-28" value="Tanggal_Lahir" style="ellipse;whiteSpace=wrap;html=1;rounded=0;" vertex="1" parent="WIyWlLk6GJQsqaUBKTNV-1">
          <mxGeometry x="-120" y="-50" width="120" height="80" as="geometry" />
        </mxCell>
        <mxCell id="ZbAeiwqcnRl_sLX5qr6F-29" value="" style="endArrow=none;html=1;rounded=0;entryX=0;entryY=0.5;entryDx=0;entryDy=0;exitX=1;exitY=0.25;exitDx=0;exitDy=0;" edge="1" parent="WIyWlLk6GJQsqaUBKTNV-1" target="ZbAeiwqcnRl_sLX5qr6F-28" source="ZbAeiwqcnRl_sLX5qr6F-4">
          <mxGeometry width="50" height="50" relative="1" as="geometry">
            <mxPoint x="-6" y="90" as="sourcePoint" />
            <mxPoint x="144" y="80" as="targetPoint" />
          </mxGeometry>
        </mxCell>
        <mxCell id="ZbAeiwqcnRl_sLX5qr6F-30" value="memiliki" style="rhombus;whiteSpace=wrap;html=1;rounded=0;" vertex="1" parent="WIyWlLk6GJQsqaUBKTNV-1">
          <mxGeometry x="17" width="80" height="80" as="geometry" />
        </mxCell>
        <mxCell id="ZbAeiwqcnRl_sLX5qr6F-32" value="" style="endArrow=none;html=1;rounded=0;exitX=1;exitY=0.5;exitDx=0;exitDy=0;entryX=0;entryY=0.5;entryDx=0;entryDy=0;" edge="1" parent="WIyWlLk6GJQsqaUBKTNV-1" source="ZbAeiwqcnRl_sLX5qr6F-4" target="ZbAeiwqcnRl_sLX5qr6F-30">
          <mxGeometry width="50" height="50" relative="1" as="geometry">
            <mxPoint x="17" y="190" as="sourcePoint" />
            <mxPoint x="67" y="140" as="targetPoint" />
          </mxGeometry>
        </mxCell>
        <mxCell id="ZbAeiwqcnRl_sLX5qr6F-48" value="1" style="edgeLabel;html=1;align=center;verticalAlign=middle;resizable=0;points=[];rounded=0;" vertex="1" connectable="0" parent="ZbAeiwqcnRl_sLX5qr6F-32">
          <mxGeometry x="0.1114" y="1" relative="1" as="geometry">
            <mxPoint as="offset" />
          </mxGeometry>
        </mxCell>
        <mxCell id="ZbAeiwqcnRl_sLX5qr6F-33" value="Alamat" style="rounded=0;whiteSpace=wrap;html=1;" vertex="1" parent="WIyWlLk6GJQsqaUBKTNV-1">
          <mxGeometry x="250" y="10" width="120" height="60" as="geometry" />
        </mxCell>
        <mxCell id="ZbAeiwqcnRl_sLX5qr6F-34" value="Alamat" style="ellipse;whiteSpace=wrap;html=1;rounded=0;" vertex="1" parent="WIyWlLk6GJQsqaUBKTNV-1">
          <mxGeometry x="250" y="-90" width="120" height="80" as="geometry" />
        </mxCell>
        <mxCell id="ZbAeiwqcnRl_sLX5qr6F-36" value="" style="endArrow=none;html=1;rounded=0;entryX=0.5;entryY=1;entryDx=0;entryDy=0;exitX=0.5;exitY=0;exitDx=0;exitDy=0;" edge="1" parent="WIyWlLk6GJQsqaUBKTNV-1" source="ZbAeiwqcnRl_sLX5qr6F-33" target="ZbAeiwqcnRl_sLX5qr6F-34">
          <mxGeometry width="50" height="50" relative="1" as="geometry">
            <mxPoint x="210" y="160" as="sourcePoint" />
            <mxPoint x="260" y="110" as="targetPoint" />
          </mxGeometry>
        </mxCell>
        <mxCell id="ZbAeiwqcnRl_sLX5qr6F-37" value="Nama" style="ellipse;whiteSpace=wrap;html=1;rounded=0;" vertex="1" parent="WIyWlLk6GJQsqaUBKTNV-1">
          <mxGeometry x="370" y="-70" width="120" height="80" as="geometry" />
        </mxCell>
        <mxCell id="ZbAeiwqcnRl_sLX5qr6F-38" value="Nomer_Telepon" style="ellipse;whiteSpace=wrap;html=1;rounded=0;" vertex="1" parent="WIyWlLk6GJQsqaUBKTNV-1">
          <mxGeometry x="370" y="70" width="120" height="80" as="geometry" />
        </mxCell>
        <mxCell id="ZbAeiwqcnRl_sLX5qr6F-39" value="Note" style="ellipse;whiteSpace=wrap;html=1;rounded=0;" vertex="1" parent="WIyWlLk6GJQsqaUBKTNV-1">
          <mxGeometry x="250" y="90" width="120" height="80" as="geometry" />
        </mxCell>
        <mxCell id="ZbAeiwqcnRl_sLX5qr6F-40" value="&lt;u&gt;Id_Alamat&lt;/u&gt;" style="ellipse;whiteSpace=wrap;html=1;rounded=0;" vertex="1" parent="WIyWlLk6GJQsqaUBKTNV-1">
          <mxGeometry x="120" y="-50" width="120" height="80" as="geometry" />
        </mxCell>
        <mxCell id="ZbAeiwqcnRl_sLX5qr6F-41" value="Label_Alamat" style="ellipse;whiteSpace=wrap;html=1;rounded=0;" vertex="1" parent="WIyWlLk6GJQsqaUBKTNV-1">
          <mxGeometry x="120" y="50" width="120" height="80" as="geometry" />
        </mxCell>
        <mxCell id="ZbAeiwqcnRl_sLX5qr6F-42" value="" style="endArrow=none;html=1;rounded=0;entryX=0;entryY=1;entryDx=0;entryDy=0;exitX=1;exitY=0.25;exitDx=0;exitDy=0;" edge="1" parent="WIyWlLk6GJQsqaUBKTNV-1" source="ZbAeiwqcnRl_sLX5qr6F-33" target="ZbAeiwqcnRl_sLX5qr6F-37">
          <mxGeometry width="50" height="50" relative="1" as="geometry">
            <mxPoint x="230" y="250" as="sourcePoint" />
            <mxPoint x="280" y="200" as="targetPoint" />
          </mxGeometry>
        </mxCell>
        <mxCell id="ZbAeiwqcnRl_sLX5qr6F-43" value="" style="endArrow=none;html=1;rounded=0;entryX=0;entryY=0;entryDx=0;entryDy=0;exitX=1;exitY=0.75;exitDx=0;exitDy=0;" edge="1" parent="WIyWlLk6GJQsqaUBKTNV-1" source="ZbAeiwqcnRl_sLX5qr6F-33" target="ZbAeiwqcnRl_sLX5qr6F-38">
          <mxGeometry width="50" height="50" relative="1" as="geometry">
            <mxPoint x="340" y="250" as="sourcePoint" />
            <mxPoint x="390" y="200" as="targetPoint" />
          </mxGeometry>
        </mxCell>
        <mxCell id="ZbAeiwqcnRl_sLX5qr6F-44" value="" style="endArrow=none;html=1;rounded=0;entryX=0.5;entryY=1;entryDx=0;entryDy=0;exitX=0.5;exitY=0;exitDx=0;exitDy=0;" edge="1" parent="WIyWlLk6GJQsqaUBKTNV-1" source="ZbAeiwqcnRl_sLX5qr6F-39" target="ZbAeiwqcnRl_sLX5qr6F-33">
          <mxGeometry width="50" height="50" relative="1" as="geometry">
            <mxPoint x="220" y="280" as="sourcePoint" />
            <mxPoint x="270" y="230" as="targetPoint" />
          </mxGeometry>
        </mxCell>
        <mxCell id="ZbAeiwqcnRl_sLX5qr6F-45" value="" style="endArrow=none;html=1;rounded=0;exitX=1;exitY=0;exitDx=0;exitDy=0;entryX=0;entryY=0.75;entryDx=0;entryDy=0;" edge="1" parent="WIyWlLk6GJQsqaUBKTNV-1" source="ZbAeiwqcnRl_sLX5qr6F-41" target="ZbAeiwqcnRl_sLX5qr6F-33">
          <mxGeometry width="50" height="50" relative="1" as="geometry">
            <mxPoint x="200" y="100" as="sourcePoint" />
            <mxPoint x="250" y="50" as="targetPoint" />
          </mxGeometry>
        </mxCell>
        <mxCell id="ZbAeiwqcnRl_sLX5qr6F-46" value="" style="endArrow=none;html=1;rounded=0;exitX=1;exitY=1;exitDx=0;exitDy=0;entryX=0;entryY=0.25;entryDx=0;entryDy=0;" edge="1" parent="WIyWlLk6GJQsqaUBKTNV-1" source="ZbAeiwqcnRl_sLX5qr6F-40" target="ZbAeiwqcnRl_sLX5qr6F-33">
          <mxGeometry width="50" height="50" relative="1" as="geometry">
            <mxPoint x="232" y="72" as="sourcePoint" />
            <mxPoint x="260" y="65" as="targetPoint" />
          </mxGeometry>
        </mxCell>
        <mxCell id="ZbAeiwqcnRl_sLX5qr6F-47" value="" style="endArrow=none;html=1;rounded=0;entryX=0;entryY=0.5;entryDx=0;entryDy=0;exitX=1;exitY=0.5;exitDx=0;exitDy=0;" edge="1" parent="WIyWlLk6GJQsqaUBKTNV-1" source="ZbAeiwqcnRl_sLX5qr6F-30" target="ZbAeiwqcnRl_sLX5qr6F-33">
          <mxGeometry width="50" height="50" relative="1" as="geometry">
            <mxPoint x="120" y="40" as="sourcePoint" />
            <mxPoint x="140" y="200" as="targetPoint" />
          </mxGeometry>
        </mxCell>
        <mxCell id="ZbAeiwqcnRl_sLX5qr6F-49" value="many" style="edgeLabel;html=1;align=center;verticalAlign=middle;resizable=0;points=[];rounded=0;" vertex="1" connectable="0" parent="ZbAeiwqcnRl_sLX5qr6F-47">
          <mxGeometry x="-0.0462" y="-1" relative="1" as="geometry">
            <mxPoint as="offset" />
          </mxGeometry>
        </mxCell>
        <mxCell id="ZbAeiwqcnRl_sLX5qr6F-50" value="memiliki" style="rhombus;whiteSpace=wrap;html=1;rounded=0;" vertex="1" parent="WIyWlLk6GJQsqaUBKTNV-1">
          <mxGeometry x="-640" width="80" height="80" as="geometry" />
        </mxCell>
        <mxCell id="ZbAeiwqcnRl_sLX5qr6F-53" value="Keranjang" style="rounded=0;whiteSpace=wrap;html=1;" vertex="1" parent="WIyWlLk6GJQsqaUBKTNV-1">
          <mxGeometry x="-660" y="-230" width="120" height="60" as="geometry" />
        </mxCell>
        <mxCell id="ZbAeiwqcnRl_sLX5qr6F-55" value="" style="endArrow=none;html=1;rounded=0;entryX=0;entryY=0.5;entryDx=0;entryDy=0;" edge="1" parent="WIyWlLk6GJQsqaUBKTNV-1" target="ZbAeiwqcnRl_sLX5qr6F-4">
          <mxGeometry width="50" height="50" relative="1" as="geometry">
            <mxPoint x="-560" y="40" as="sourcePoint" />
            <mxPoint x="-510" y="140" as="targetPoint" />
          </mxGeometry>
        </mxCell>
        <mxCell id="ZbAeiwqcnRl_sLX5qr6F-56" value="1" style="edgeLabel;html=1;align=center;verticalAlign=middle;resizable=0;points=[];rounded=0;" vertex="1" connectable="0" parent="ZbAeiwqcnRl_sLX5qr6F-55">
          <mxGeometry x="0.0125" relative="1" as="geometry">
            <mxPoint as="offset" />
          </mxGeometry>
        </mxCell>
        <mxCell id="ZbAeiwqcnRl_sLX5qr6F-57" value="" style="endArrow=none;html=1;rounded=0;exitX=0.5;exitY=1;exitDx=0;exitDy=0;entryX=0.5;entryY=0;entryDx=0;entryDy=0;" edge="1" parent="WIyWlLk6GJQsqaUBKTNV-1" source="ZbAeiwqcnRl_sLX5qr6F-53" target="ZbAeiwqcnRl_sLX5qr6F-50">
          <mxGeometry width="50" height="50" relative="1" as="geometry">
            <mxPoint x="-570" y="-60" as="sourcePoint" />
            <mxPoint x="-510" y="150" as="targetPoint" />
            <Array as="points" />
          </mxGeometry>
        </mxCell>
        <mxCell id="ZbAeiwqcnRl_sLX5qr6F-58" value="1" style="edgeLabel;html=1;align=center;verticalAlign=middle;resizable=0;points=[];rounded=0;" vertex="1" connectable="0" parent="ZbAeiwqcnRl_sLX5qr6F-57">
          <mxGeometry relative="1" as="geometry">
            <mxPoint as="offset" />
          </mxGeometry>
        </mxCell>
        <mxCell id="ZbAeiwqcnRl_sLX5qr6F-59" value="&lt;u&gt;Id_Keranjang&lt;/u&gt;" style="ellipse;whiteSpace=wrap;html=1;rounded=0;" vertex="1" parent="WIyWlLk6GJQsqaUBKTNV-1">
          <mxGeometry x="-580" y="-120" width="120" height="80" as="geometry" />
        </mxCell>
        <mxCell id="ZbAeiwqcnRl_sLX5qr6F-60" value="Id_User(FK)" style="ellipse;whiteSpace=wrap;html=1;rounded=0;" vertex="1" parent="WIyWlLk6GJQsqaUBKTNV-1">
          <mxGeometry x="-740" y="-120" width="120" height="80" as="geometry" />
        </mxCell>
        <mxCell id="ZbAeiwqcnRl_sLX5qr6F-61" value="" style="endArrow=none;html=1;rounded=0;entryX=0.5;entryY=0;entryDx=0;entryDy=0;exitX=0.75;exitY=1;exitDx=0;exitDy=0;" edge="1" parent="WIyWlLk6GJQsqaUBKTNV-1" source="ZbAeiwqcnRl_sLX5qr6F-53" target="ZbAeiwqcnRl_sLX5qr6F-59">
          <mxGeometry width="50" height="50" relative="1" as="geometry">
            <mxPoint x="-580.1" y="429.78" as="sourcePoint" />
            <mxPoint x="-530.1" y="379.78" as="targetPoint" />
          </mxGeometry>
        </mxCell>
        <mxCell id="ZbAeiwqcnRl_sLX5qr6F-62" value="" style="endArrow=none;html=1;rounded=0;entryX=0.5;entryY=0;entryDx=0;entryDy=0;exitX=0.25;exitY=1;exitDx=0;exitDy=0;" edge="1" parent="WIyWlLk6GJQsqaUBKTNV-1" source="ZbAeiwqcnRl_sLX5qr6F-53" target="ZbAeiwqcnRl_sLX5qr6F-60">
          <mxGeometry width="50" height="50" relative="1" as="geometry">
            <mxPoint x="-730.1" y="389.78" as="sourcePoint" />
            <mxPoint x="-680.1" y="339.78" as="targetPoint" />
          </mxGeometry>
        </mxCell>
        <mxCell id="ZbAeiwqcnRl_sLX5qr6F-63" value="bisa diisi" style="rhombus;whiteSpace=wrap;html=1;rounded=0;" vertex="1" parent="WIyWlLk6GJQsqaUBKTNV-1">
          <mxGeometry x="-640" y="-380.00000000000006" width="80" height="80" as="geometry" />
        </mxCell>
        <mxCell id="ZbAeiwqcnRl_sLX5qr6F-64" value="" style="endArrow=none;html=1;rounded=0;exitX=0.5;exitY=1;exitDx=0;exitDy=0;entryX=0.5;entryY=0;entryDx=0;entryDy=0;entryPerimeter=0;" edge="1" parent="WIyWlLk6GJQsqaUBKTNV-1" source="ZbAeiwqcnRl_sLX5qr6F-63" target="ZbAeiwqcnRl_sLX5qr6F-53">
          <mxGeometry width="50" height="50" relative="1" as="geometry">
            <mxPoint x="-430.09999999999997" y="429.78" as="sourcePoint" />
            <mxPoint x="-730" y="-180" as="targetPoint" />
            <Array as="points">
              <mxPoint x="-600" y="-290" />
            </Array>
          </mxGeometry>
        </mxCell>
        <mxCell id="ZbAeiwqcnRl_sLX5qr6F-65" value="1" style="edgeLabel;html=1;align=center;verticalAlign=middle;resizable=0;points=[];rounded=0;" vertex="1" connectable="0" parent="ZbAeiwqcnRl_sLX5qr6F-64">
          <mxGeometry x="-0.12" relative="1" as="geometry">
            <mxPoint as="offset" />
          </mxGeometry>
        </mxCell>
        <mxCell id="ZbAeiwqcnRl_sLX5qr6F-66" value="Item_Keranjang" style="rounded=0;whiteSpace=wrap;html=1;" vertex="1" parent="WIyWlLk6GJQsqaUBKTNV-1">
          <mxGeometry x="-660.1" y="-490.00000000000006" width="120" height="60" as="geometry" />
        </mxCell>
        <mxCell id="ZbAeiwqcnRl_sLX5qr6F-67" value="" style="endArrow=none;html=1;rounded=0;exitX=0.5;exitY=1;exitDx=0;exitDy=0;entryX=0.5;entryY=0;entryDx=0;entryDy=0;" edge="1" parent="WIyWlLk6GJQsqaUBKTNV-1" source="ZbAeiwqcnRl_sLX5qr6F-66" target="ZbAeiwqcnRl_sLX5qr6F-63">
          <mxGeometry width="50" height="50" relative="1" as="geometry">
            <mxPoint x="-730.1" y="-485.00000000000006" as="sourcePoint" />
            <mxPoint x="-586.9" y="-320.54" as="targetPoint" />
          </mxGeometry>
        </mxCell>
        <mxCell id="ZbAeiwqcnRl_sLX5qr6F-125" value="many" style="edgeLabel;html=1;align=center;verticalAlign=middle;resizable=0;points=[];" vertex="1" connectable="0" parent="ZbAeiwqcnRl_sLX5qr6F-67">
          <mxGeometry x="-0.2131" y="3" relative="1" as="geometry">
            <mxPoint as="offset" />
          </mxGeometry>
        </mxCell>
        <mxCell id="ZbAeiwqcnRl_sLX5qr6F-68" value="&lt;u&gt;Id_Item_Keranjang&lt;/u&gt;" style="ellipse;whiteSpace=wrap;html=1;rounded=0;" vertex="1" parent="WIyWlLk6GJQsqaUBKTNV-1">
          <mxGeometry x="-760.1" y="-580" width="120" height="80" as="geometry" />
        </mxCell>
        <mxCell id="ZbAeiwqcnRl_sLX5qr6F-69" value="Id_Produk(FK)" style="ellipse;whiteSpace=wrap;html=1;rounded=0;" vertex="1" parent="WIyWlLk6GJQsqaUBKTNV-1">
          <mxGeometry x="-799.9" y="-500.00000000000006" width="120" height="80" as="geometry" />
        </mxCell>
        <mxCell id="ZbAeiwqcnRl_sLX5qr6F-70" value="Waktu" style="ellipse;whiteSpace=wrap;html=1;rounded=0;" vertex="1" parent="WIyWlLk6GJQsqaUBKTNV-1">
          <mxGeometry x="-770.1" y="-420.00000000000006" width="120" height="80" as="geometry" />
        </mxCell>
        <mxCell id="ZbAeiwqcnRl_sLX5qr6F-72" value="" style="endArrow=none;html=1;rounded=0;entryX=1;entryY=1;entryDx=0;entryDy=0;exitX=0.25;exitY=0;exitDx=0;exitDy=0;" edge="1" parent="WIyWlLk6GJQsqaUBKTNV-1" source="ZbAeiwqcnRl_sLX5qr6F-66" target="ZbAeiwqcnRl_sLX5qr6F-68">
          <mxGeometry width="50" height="50" relative="1" as="geometry">
            <mxPoint x="-510.1" y="-335.00000000000006" as="sourcePoint" />
            <mxPoint x="-460.09999999999997" y="-385.00000000000006" as="targetPoint" />
          </mxGeometry>
        </mxCell>
        <mxCell id="ZbAeiwqcnRl_sLX5qr6F-73" value="" style="endArrow=none;html=1;rounded=0;entryX=0;entryY=0.5;entryDx=0;entryDy=0;exitX=1;exitY=0.5;exitDx=0;exitDy=0;" edge="1" parent="WIyWlLk6GJQsqaUBKTNV-1" target="ZbAeiwqcnRl_sLX5qr6F-66">
          <mxGeometry width="50" height="50" relative="1" as="geometry">
            <mxPoint x="-680.1000000000068" y="-460.00000000000006" as="sourcePoint" />
            <mxPoint x="-550.1" y="-375.00000000000006" as="targetPoint" />
          </mxGeometry>
        </mxCell>
        <mxCell id="ZbAeiwqcnRl_sLX5qr6F-74" value="" style="endArrow=none;html=1;rounded=0;entryX=0.25;entryY=1;entryDx=0;entryDy=0;exitX=1;exitY=0;exitDx=0;exitDy=0;" edge="1" parent="WIyWlLk6GJQsqaUBKTNV-1" source="ZbAeiwqcnRl_sLX5qr6F-70" target="ZbAeiwqcnRl_sLX5qr6F-66">
          <mxGeometry width="50" height="50" relative="1" as="geometry">
            <mxPoint x="-590.1" y="-325.00000000000006" as="sourcePoint" />
            <mxPoint x="-540.1" y="-375.00000000000006" as="targetPoint" />
          </mxGeometry>
        </mxCell>
        <mxCell id="ZbAeiwqcnRl_sLX5qr6F-75" value="Id_Keranjang(FK)" style="ellipse;whiteSpace=wrap;html=1;rounded=0;" vertex="1" parent="WIyWlLk6GJQsqaUBKTNV-1">
          <mxGeometry x="-560.1" y="-580" width="120" height="80" as="geometry" />
        </mxCell>
        <mxCell id="ZbAeiwqcnRl_sLX5qr6F-76" value="" style="endArrow=none;html=1;rounded=0;entryX=0;entryY=1;entryDx=0;entryDy=0;exitX=0.75;exitY=0;exitDx=0;exitDy=0;" edge="1" parent="WIyWlLk6GJQsqaUBKTNV-1" source="ZbAeiwqcnRl_sLX5qr6F-66" target="ZbAeiwqcnRl_sLX5qr6F-75">
          <mxGeometry width="50" height="50" relative="1" as="geometry">
            <mxPoint x="-540.1" y="-345.00000000000006" as="sourcePoint" />
            <mxPoint x="-490.09999999999997" y="-395.00000000000006" as="targetPoint" />
          </mxGeometry>
        </mxCell>
        <mxCell id="ZbAeiwqcnRl_sLX5qr6F-77" value="Kuantitas" style="ellipse;whiteSpace=wrap;html=1;rounded=0;" vertex="1" parent="WIyWlLk6GJQsqaUBKTNV-1">
          <mxGeometry x="-520.1" y="-500.00000000000006" width="120" height="80" as="geometry" />
        </mxCell>
        <mxCell id="ZbAeiwqcnRl_sLX5qr6F-78" value="" style="endArrow=none;html=1;rounded=0;entryX=0;entryY=0.5;entryDx=0;entryDy=0;exitX=1;exitY=0.5;exitDx=0;exitDy=0;" edge="1" parent="WIyWlLk6GJQsqaUBKTNV-1" source="ZbAeiwqcnRl_sLX5qr6F-66" target="ZbAeiwqcnRl_sLX5qr6F-77">
          <mxGeometry width="50" height="50" relative="1" as="geometry">
            <mxPoint x="-570.1" y="-335.00000000000006" as="sourcePoint" />
            <mxPoint x="-520.1" y="-385.00000000000006" as="targetPoint" />
          </mxGeometry>
        </mxCell>
        <mxCell id="ZbAeiwqcnRl_sLX5qr6F-79" value="Tanggal" style="ellipse;whiteSpace=wrap;html=1;rounded=0;" vertex="1" parent="WIyWlLk6GJQsqaUBKTNV-1">
          <mxGeometry x="-553.1" y="-420.00000000000006" width="120" height="80" as="geometry" />
        </mxCell>
        <mxCell id="ZbAeiwqcnRl_sLX5qr6F-80" value="" style="endArrow=none;html=1;rounded=0;entryX=0.75;entryY=1;entryDx=0;entryDy=0;exitX=0;exitY=0;exitDx=0;exitDy=0;" edge="1" parent="WIyWlLk6GJQsqaUBKTNV-1" source="ZbAeiwqcnRl_sLX5qr6F-79" target="ZbAeiwqcnRl_sLX5qr6F-66">
          <mxGeometry width="50" height="50" relative="1" as="geometry">
            <mxPoint x="-610.1" y="-355.00000000000006" as="sourcePoint" />
            <mxPoint x="-560.1" y="-405.00000000000006" as="targetPoint" />
          </mxGeometry>
        </mxCell>
        <mxCell id="ZbAeiwqcnRl_sLX5qr6F-81" value="Id_User(FK)" style="ellipse;whiteSpace=wrap;html=1;rounded=0;" vertex="1" parent="WIyWlLk6GJQsqaUBKTNV-1">
          <mxGeometry x="443" width="120" height="80" as="geometry" />
        </mxCell>
        <mxCell id="ZbAeiwqcnRl_sLX5qr6F-82" value="" style="endArrow=none;html=1;rounded=0;entryX=0;entryY=0.5;entryDx=0;entryDy=0;exitX=1;exitY=0.5;exitDx=0;exitDy=0;" edge="1" parent="WIyWlLk6GJQsqaUBKTNV-1" source="ZbAeiwqcnRl_sLX5qr6F-33" target="ZbAeiwqcnRl_sLX5qr6F-81">
          <mxGeometry width="50" height="50" relative="1" as="geometry">
            <mxPoint x="353" y="320" as="sourcePoint" />
            <mxPoint x="403" y="270" as="targetPoint" />
          </mxGeometry>
        </mxCell>
        <mxCell id="ZbAeiwqcnRl_sLX5qr6F-83" value="memiliki" style="rhombus;whiteSpace=wrap;html=1;rounded=0;" vertex="1" parent="WIyWlLk6GJQsqaUBKTNV-1">
          <mxGeometry x="-280" y="-160" width="80" height="80" as="geometry" />
        </mxCell>
        <mxCell id="ZbAeiwqcnRl_sLX5qr6F-84" value="" style="endArrow=none;html=1;rounded=0;entryX=0.5;entryY=1;entryDx=0;entryDy=0;exitX=0.5;exitY=0;exitDx=0;exitDy=0;" edge="1" parent="WIyWlLk6GJQsqaUBKTNV-1" source="ZbAeiwqcnRl_sLX5qr6F-4" target="ZbAeiwqcnRl_sLX5qr6F-83">
          <mxGeometry width="50" height="50" relative="1" as="geometry">
            <mxPoint x="-100" y="-130" as="sourcePoint" />
            <mxPoint x="-50" y="-180" as="targetPoint" />
          </mxGeometry>
        </mxCell>
        <mxCell id="ZbAeiwqcnRl_sLX5qr6F-85" value="1" style="edgeLabel;html=1;align=center;verticalAlign=middle;resizable=0;points=[];rounded=0;" vertex="1" connectable="0" parent="ZbAeiwqcnRl_sLX5qr6F-84">
          <mxGeometry x="0.2418" y="2" relative="1" as="geometry">
            <mxPoint y="1" as="offset" />
          </mxGeometry>
        </mxCell>
        <mxCell id="ZbAeiwqcnRl_sLX5qr6F-86" value="Toko" style="rounded=0;whiteSpace=wrap;html=1;" vertex="1" parent="WIyWlLk6GJQsqaUBKTNV-1">
          <mxGeometry x="-300" y="-310" width="120" height="60" as="geometry" />
        </mxCell>
        <mxCell id="ZbAeiwqcnRl_sLX5qr6F-87" value="" style="endArrow=none;html=1;rounded=0;entryX=0.5;entryY=1;entryDx=0;entryDy=0;exitX=0.5;exitY=0;exitDx=0;exitDy=0;" edge="1" parent="WIyWlLk6GJQsqaUBKTNV-1" source="ZbAeiwqcnRl_sLX5qr6F-83" target="ZbAeiwqcnRl_sLX5qr6F-86">
          <mxGeometry width="50" height="50" relative="1" as="geometry">
            <mxPoint x="-150" y="-140" as="sourcePoint" />
            <mxPoint x="-100" y="-190" as="targetPoint" />
          </mxGeometry>
        </mxCell>
        <mxCell id="ZbAeiwqcnRl_sLX5qr6F-102" value="1" style="edgeLabel;html=1;align=center;verticalAlign=middle;resizable=0;points=[];rounded=0;" vertex="1" connectable="0" parent="ZbAeiwqcnRl_sLX5qr6F-87">
          <mxGeometry x="0.1028" relative="1" as="geometry">
            <mxPoint as="offset" />
          </mxGeometry>
        </mxCell>
        <mxCell id="ZbAeiwqcnRl_sLX5qr6F-88" value="Lokasi" style="ellipse;whiteSpace=wrap;html=1;rounded=0;" vertex="1" parent="WIyWlLk6GJQsqaUBKTNV-1">
          <mxGeometry x="-370" y="-210" width="120" height="80" as="geometry" />
        </mxCell>
        <mxCell id="ZbAeiwqcnRl_sLX5qr6F-89" value="Jam_Operasional" style="ellipse;whiteSpace=wrap;html=1;rounded=0;" vertex="1" parent="WIyWlLk6GJQsqaUBKTNV-1">
          <mxGeometry x="-230" y="-210" width="120" height="80" as="geometry" />
        </mxCell>
        <mxCell id="ZbAeiwqcnRl_sLX5qr6F-90" value="" style="endArrow=none;html=1;rounded=0;entryX=0.25;entryY=1;entryDx=0;entryDy=0;" edge="1" parent="WIyWlLk6GJQsqaUBKTNV-1" source="ZbAeiwqcnRl_sLX5qr6F-88" target="ZbAeiwqcnRl_sLX5qr6F-86">
          <mxGeometry width="50" height="50" relative="1" as="geometry">
            <mxPoint x="-80" y="-240" as="sourcePoint" />
            <mxPoint x="-30" y="-290" as="targetPoint" />
          </mxGeometry>
        </mxCell>
        <mxCell id="ZbAeiwqcnRl_sLX5qr6F-91" value="" style="endArrow=none;html=1;rounded=0;entryX=0.75;entryY=1;entryDx=0;entryDy=0;" edge="1" parent="WIyWlLk6GJQsqaUBKTNV-1" source="ZbAeiwqcnRl_sLX5qr6F-89" target="ZbAeiwqcnRl_sLX5qr6F-86">
          <mxGeometry width="50" height="50" relative="1" as="geometry">
            <mxPoint x="10" y="-190" as="sourcePoint" />
            <mxPoint x="60" y="-240" as="targetPoint" />
          </mxGeometry>
        </mxCell>
        <mxCell id="ZbAeiwqcnRl_sLX5qr6F-92" value="Tanggal_bergabung" style="ellipse;whiteSpace=wrap;html=1;rounded=0;" vertex="1" parent="WIyWlLk6GJQsqaUBKTNV-1">
          <mxGeometry x="-120" y="-250" width="120" height="80" as="geometry" />
        </mxCell>
        <mxCell id="ZbAeiwqcnRl_sLX5qr6F-93" value="Nama_Toko" style="ellipse;whiteSpace=wrap;html=1;rounded=0;" vertex="1" parent="WIyWlLk6GJQsqaUBKTNV-1">
          <mxGeometry x="-480" y="-250" width="120" height="80" as="geometry" />
        </mxCell>
        <mxCell id="ZbAeiwqcnRl_sLX5qr6F-94" value="Id_User(FK)" style="ellipse;whiteSpace=wrap;html=1;rounded=0;" vertex="1" parent="WIyWlLk6GJQsqaUBKTNV-1">
          <mxGeometry x="-430" y="-330" width="120" height="80" as="geometry" />
        </mxCell>
        <mxCell id="ZbAeiwqcnRl_sLX5qr6F-95" value="Waktu" style="ellipse;whiteSpace=wrap;html=1;rounded=0;" vertex="1" parent="WIyWlLk6GJQsqaUBKTNV-1">
          <mxGeometry x="-170" y="-330" width="120" height="80" as="geometry" />
        </mxCell>
        <mxCell id="ZbAeiwqcnRl_sLX5qr6F-96" value="&lt;u&gt;Id_Toko&lt;/u&gt;" style="ellipse;whiteSpace=wrap;html=1;rounded=0;" vertex="1" parent="WIyWlLk6GJQsqaUBKTNV-1">
          <mxGeometry x="-300" y="-410" width="120" height="80" as="geometry" />
        </mxCell>
        <mxCell id="ZbAeiwqcnRl_sLX5qr6F-97" value="" style="endArrow=none;html=1;rounded=0;entryX=0;entryY=1;entryDx=0;entryDy=0;exitX=1;exitY=0.5;exitDx=0;exitDy=0;" edge="1" parent="WIyWlLk6GJQsqaUBKTNV-1" source="ZbAeiwqcnRl_sLX5qr6F-93" target="ZbAeiwqcnRl_sLX5qr6F-86">
          <mxGeometry width="50" height="50" relative="1" as="geometry">
            <mxPoint x="-440" y="-100" as="sourcePoint" />
            <mxPoint x="-390" y="-150" as="targetPoint" />
          </mxGeometry>
        </mxCell>
        <mxCell id="ZbAeiwqcnRl_sLX5qr6F-98" value="" style="endArrow=none;html=1;rounded=0;entryX=1;entryY=1;entryDx=0;entryDy=0;exitX=0;exitY=0.5;exitDx=0;exitDy=0;" edge="1" parent="WIyWlLk6GJQsqaUBKTNV-1" source="ZbAeiwqcnRl_sLX5qr6F-92" target="ZbAeiwqcnRl_sLX5qr6F-86">
          <mxGeometry width="50" height="50" relative="1" as="geometry">
            <mxPoint x="-470" y="-90" as="sourcePoint" />
            <mxPoint x="-420" y="-140" as="targetPoint" />
          </mxGeometry>
        </mxCell>
        <mxCell id="ZbAeiwqcnRl_sLX5qr6F-99" value="" style="endArrow=none;html=1;rounded=0;entryX=0;entryY=0.5;entryDx=0;entryDy=0;exitX=1;exitY=0.5;exitDx=0;exitDy=0;" edge="1" parent="WIyWlLk6GJQsqaUBKTNV-1" source="ZbAeiwqcnRl_sLX5qr6F-94" target="ZbAeiwqcnRl_sLX5qr6F-86">
          <mxGeometry width="50" height="50" relative="1" as="geometry">
            <mxPoint x="-460" y="-90" as="sourcePoint" />
            <mxPoint x="-410" y="-140" as="targetPoint" />
          </mxGeometry>
        </mxCell>
        <mxCell id="ZbAeiwqcnRl_sLX5qr6F-100" value="" style="endArrow=none;html=1;rounded=0;entryX=0;entryY=0.5;entryDx=0;entryDy=0;exitX=1;exitY=0.5;exitDx=0;exitDy=0;" edge="1" parent="WIyWlLk6GJQsqaUBKTNV-1" source="ZbAeiwqcnRl_sLX5qr6F-86" target="ZbAeiwqcnRl_sLX5qr6F-95">
          <mxGeometry width="50" height="50" relative="1" as="geometry">
            <mxPoint x="-470" y="-80" as="sourcePoint" />
            <mxPoint x="-420" y="-130" as="targetPoint" />
          </mxGeometry>
        </mxCell>
        <mxCell id="ZbAeiwqcnRl_sLX5qr6F-101" value="" style="endArrow=none;html=1;rounded=0;entryX=0.5;entryY=1;entryDx=0;entryDy=0;exitX=0.5;exitY=0;exitDx=0;exitDy=0;" edge="1" parent="WIyWlLk6GJQsqaUBKTNV-1" source="ZbAeiwqcnRl_sLX5qr6F-86" target="ZbAeiwqcnRl_sLX5qr6F-96">
          <mxGeometry width="50" height="50" relative="1" as="geometry">
            <mxPoint x="-440" y="-70" as="sourcePoint" />
            <mxPoint x="-390" y="-120" as="targetPoint" />
          </mxGeometry>
        </mxCell>
        <mxCell id="ZbAeiwqcnRl_sLX5qr6F-103" value="memiliki" style="rhombus;whiteSpace=wrap;html=1;rounded=0;" vertex="1" parent="WIyWlLk6GJQsqaUBKTNV-1">
          <mxGeometry x="-160" y="-460" width="80" height="80" as="geometry" />
        </mxCell>
        <mxCell id="ZbAeiwqcnRl_sLX5qr6F-104" value="" style="endArrow=none;html=1;rounded=0;entryX=0.5;entryY=1;entryDx=0;entryDy=0;exitX=0.75;exitY=0;exitDx=0;exitDy=0;" edge="1" parent="WIyWlLk6GJQsqaUBKTNV-1" source="ZbAeiwqcnRl_sLX5qr6F-86" target="ZbAeiwqcnRl_sLX5qr6F-103">
          <mxGeometry width="50" height="50" relative="1" as="geometry">
            <mxPoint x="-150" y="-360" as="sourcePoint" />
            <mxPoint x="-100" y="-410" as="targetPoint" />
          </mxGeometry>
        </mxCell>
        <mxCell id="ZbAeiwqcnRl_sLX5qr6F-105" value="Produk" style="rounded=0;whiteSpace=wrap;html=1;" vertex="1" parent="WIyWlLk6GJQsqaUBKTNV-1">
          <mxGeometry x="-180" y="-590" width="120" height="60" as="geometry" />
        </mxCell>
        <mxCell id="ZbAeiwqcnRl_sLX5qr6F-106" value="" style="endArrow=none;html=1;entryX=0.5;entryY=1;entryDx=0;entryDy=0;exitX=0.5;exitY=0;exitDx=0;exitDy=0;" edge="1" parent="WIyWlLk6GJQsqaUBKTNV-1" source="ZbAeiwqcnRl_sLX5qr6F-103" target="ZbAeiwqcnRl_sLX5qr6F-105">
          <mxGeometry width="50" height="50" relative="1" as="geometry">
            <mxPoint x="-60" y="-410" as="sourcePoint" />
            <mxPoint x="-10" y="-460" as="targetPoint" />
          </mxGeometry>
        </mxCell>
        <mxCell id="ZbAeiwqcnRl_sLX5qr6F-107" value="&lt;u&gt;Id_Produk&lt;/u&gt;" style="ellipse;whiteSpace=wrap;html=1;" vertex="1" parent="WIyWlLk6GJQsqaUBKTNV-1">
          <mxGeometry x="-110" y="-490" width="70" height="50" as="geometry" />
        </mxCell>
        <mxCell id="ZbAeiwqcnRl_sLX5qr6F-108" value="" style="endArrow=none;html=1;entryX=0.75;entryY=1;entryDx=0;entryDy=0;exitX=0.5;exitY=0;exitDx=0;exitDy=0;" edge="1" parent="WIyWlLk6GJQsqaUBKTNV-1" source="ZbAeiwqcnRl_sLX5qr6F-107" target="ZbAeiwqcnRl_sLX5qr6F-105">
          <mxGeometry width="50" height="50" relative="1" as="geometry">
            <mxPoint x="-10" y="-420" as="sourcePoint" />
            <mxPoint x="40" y="-470" as="targetPoint" />
          </mxGeometry>
        </mxCell>
        <mxCell id="ZbAeiwqcnRl_sLX5qr6F-109" value="Id_Toko" style="ellipse;whiteSpace=wrap;html=1;" vertex="1" parent="WIyWlLk6GJQsqaUBKTNV-1">
          <mxGeometry x="-200" y="-490" width="70" height="50" as="geometry" />
        </mxCell>
        <mxCell id="ZbAeiwqcnRl_sLX5qr6F-110" value="" style="endArrow=none;html=1;entryX=0.25;entryY=1;entryDx=0;entryDy=0;exitX=0.5;exitY=0;exitDx=0;exitDy=0;" edge="1" parent="WIyWlLk6GJQsqaUBKTNV-1" source="ZbAeiwqcnRl_sLX5qr6F-109" target="ZbAeiwqcnRl_sLX5qr6F-105">
          <mxGeometry width="50" height="50" relative="1" as="geometry">
            <mxPoint x="-290" y="-440" as="sourcePoint" />
            <mxPoint x="-240" y="-490" as="targetPoint" />
          </mxGeometry>
        </mxCell>
        <mxCell id="ZbAeiwqcnRl_sLX5qr6F-111" value="Deskripsi" style="ellipse;whiteSpace=wrap;html=1;" vertex="1" parent="WIyWlLk6GJQsqaUBKTNV-1">
          <mxGeometry x="-275" y="-470" width="70" height="50" as="geometry" />
        </mxCell>
        <mxCell id="ZbAeiwqcnRl_sLX5qr6F-112" value="" style="endArrow=none;html=1;entryX=0;entryY=1;entryDx=0;entryDy=0;exitX=1;exitY=0;exitDx=0;exitDy=0;" edge="1" parent="WIyWlLk6GJQsqaUBKTNV-1" source="ZbAeiwqcnRl_sLX5qr6F-111" target="ZbAeiwqcnRl_sLX5qr6F-105">
          <mxGeometry width="50" height="50" relative="1" as="geometry">
            <mxPoint x="-320" y="-430" as="sourcePoint" />
            <mxPoint x="-270" y="-480" as="targetPoint" />
          </mxGeometry>
        </mxCell>
        <mxCell id="ZbAeiwqcnRl_sLX5qr6F-113" value="Nama" style="ellipse;whiteSpace=wrap;html=1;" vertex="1" parent="WIyWlLk6GJQsqaUBKTNV-1">
          <mxGeometry x="-30" y="-470" width="70" height="50" as="geometry" />
        </mxCell>
        <mxCell id="ZbAeiwqcnRl_sLX5qr6F-114" value="" style="endArrow=none;html=1;entryX=1;entryY=1;entryDx=0;entryDy=0;exitX=0;exitY=0;exitDx=0;exitDy=0;" edge="1" parent="WIyWlLk6GJQsqaUBKTNV-1" source="ZbAeiwqcnRl_sLX5qr6F-113" target="ZbAeiwqcnRl_sLX5qr6F-105">
          <mxGeometry width="50" height="50" relative="1" as="geometry">
            <mxPoint x="10" y="-400" as="sourcePoint" />
            <mxPoint x="60" y="-450" as="targetPoint" />
          </mxGeometry>
        </mxCell>
        <mxCell id="ZbAeiwqcnRl_sLX5qr6F-115" value="Harga" style="ellipse;whiteSpace=wrap;html=1;" vertex="1" parent="WIyWlLk6GJQsqaUBKTNV-1">
          <mxGeometry x="-290" y="-530" width="70" height="50" as="geometry" />
        </mxCell>
        <mxCell id="ZbAeiwqcnRl_sLX5qr6F-117" value="Stok" style="ellipse;whiteSpace=wrap;html=1;" vertex="1" parent="WIyWlLk6GJQsqaUBKTNV-1">
          <mxGeometry x="-20" y="-530" width="70" height="50" as="geometry" />
        </mxCell>
        <mxCell id="ZbAeiwqcnRl_sLX5qr6F-118" value="Rating" style="ellipse;whiteSpace=wrap;html=1;" vertex="1" parent="WIyWlLk6GJQsqaUBKTNV-1">
          <mxGeometry x="-270" y="-620" width="70" height="50" as="geometry" />
        </mxCell>
        <mxCell id="ZbAeiwqcnRl_sLX5qr6F-119" value="Waktu" style="ellipse;whiteSpace=wrap;html=1;" vertex="1" parent="WIyWlLk6GJQsqaUBKTNV-1">
          <mxGeometry x="-40" y="-620" width="70" height="50" as="geometry" />
        </mxCell>
        <mxCell id="ZbAeiwqcnRl_sLX5qr6F-121" value="Foto" style="ellipse;whiteSpace=wrap;html=1;" vertex="1" parent="WIyWlLk6GJQsqaUBKTNV-1">
          <mxGeometry x="-210" y="-650" width="70" height="50" as="geometry" />
        </mxCell>
        <mxCell id="ZbAeiwqcnRl_sLX5qr6F-122" value="Tanggal" style="ellipse;whiteSpace=wrap;html=1;" vertex="1" parent="WIyWlLk6GJQsqaUBKTNV-1">
          <mxGeometry x="-100" y="-650" width="70" height="50" as="geometry" />
        </mxCell>
        <mxCell id="ZbAeiwqcnRl_sLX5qr6F-126" value="" style="endArrow=none;html=1;entryX=0;entryY=0.75;entryDx=0;entryDy=0;exitX=1;exitY=0;exitDx=0;exitDy=0;" edge="1" parent="WIyWlLk6GJQsqaUBKTNV-1" source="ZbAeiwqcnRl_sLX5qr6F-115" target="ZbAeiwqcnRl_sLX5qr6F-105">
          <mxGeometry width="50" height="50" relative="1" as="geometry">
            <mxPoint x="-370" y="-460" as="sourcePoint" />
            <mxPoint x="-320" y="-510" as="targetPoint" />
          </mxGeometry>
        </mxCell>
        <mxCell id="ZbAeiwqcnRl_sLX5qr6F-127" value="" style="endArrow=none;html=1;entryX=1;entryY=0.75;entryDx=0;entryDy=0;exitX=0;exitY=0;exitDx=0;exitDy=0;" edge="1" parent="WIyWlLk6GJQsqaUBKTNV-1" source="ZbAeiwqcnRl_sLX5qr6F-117" target="ZbAeiwqcnRl_sLX5qr6F-105">
          <mxGeometry width="50" height="50" relative="1" as="geometry">
            <mxPoint x="-350" y="-440" as="sourcePoint" />
            <mxPoint x="-300" y="-490" as="targetPoint" />
          </mxGeometry>
        </mxCell>
        <mxCell id="ZbAeiwqcnRl_sLX5qr6F-128" value="" style="endArrow=none;html=1;entryX=0;entryY=1;entryDx=0;entryDy=0;exitX=1;exitY=0.25;exitDx=0;exitDy=0;" edge="1" parent="WIyWlLk6GJQsqaUBKTNV-1" source="ZbAeiwqcnRl_sLX5qr6F-105" target="ZbAeiwqcnRl_sLX5qr6F-119">
          <mxGeometry width="50" height="50" relative="1" as="geometry">
            <mxPoint x="-340" y="-420" as="sourcePoint" />
            <mxPoint x="-290" y="-470" as="targetPoint" />
          </mxGeometry>
        </mxCell>
        <mxCell id="ZbAeiwqcnRl_sLX5qr6F-129" value="" style="endArrow=none;html=1;entryX=0;entryY=0.25;entryDx=0;entryDy=0;exitX=1;exitY=1;exitDx=0;exitDy=0;" edge="1" parent="WIyWlLk6GJQsqaUBKTNV-1" source="ZbAeiwqcnRl_sLX5qr6F-118" target="ZbAeiwqcnRl_sLX5qr6F-105">
          <mxGeometry width="50" height="50" relative="1" as="geometry">
            <mxPoint x="-360" y="-410" as="sourcePoint" />
            <mxPoint x="-310" y="-460" as="targetPoint" />
          </mxGeometry>
        </mxCell>
        <mxCell id="ZbAeiwqcnRl_sLX5qr6F-130" value="" style="endArrow=none;html=1;entryX=0.5;entryY=1;entryDx=0;entryDy=0;exitX=0.25;exitY=0;exitDx=0;exitDy=0;" edge="1" parent="WIyWlLk6GJQsqaUBKTNV-1" source="ZbAeiwqcnRl_sLX5qr6F-105" target="ZbAeiwqcnRl_sLX5qr6F-121">
          <mxGeometry width="50" height="50" relative="1" as="geometry">
            <mxPoint x="-350" y="-440" as="sourcePoint" />
            <mxPoint x="-300" y="-490" as="targetPoint" />
          </mxGeometry>
        </mxCell>
        <mxCell id="ZbAeiwqcnRl_sLX5qr6F-131" value="" style="endArrow=none;html=1;entryX=0.5;entryY=1;entryDx=0;entryDy=0;exitX=0.75;exitY=0;exitDx=0;exitDy=0;" edge="1" parent="WIyWlLk6GJQsqaUBKTNV-1" source="ZbAeiwqcnRl_sLX5qr6F-105" target="ZbAeiwqcnRl_sLX5qr6F-122">
          <mxGeometry width="50" height="50" relative="1" as="geometry">
            <mxPoint x="-350" y="-400" as="sourcePoint" />
            <mxPoint x="-300" y="-450" as="targetPoint" />
          </mxGeometry>
        </mxCell>
        <mxCell id="ZbAeiwqcnRl_sLX5qr6F-132" value="" style="endArrow=none;html=1;entryX=0;entryY=0.5;entryDx=0;entryDy=0;exitX=1;exitY=0.5;exitDx=0;exitDy=0;" edge="1" parent="WIyWlLk6GJQsqaUBKTNV-1" source="ZbAeiwqcnRl_sLX5qr6F-134" target="ZbAeiwqcnRl_sLX5qr6F-105">
          <mxGeometry width="50" height="50" relative="1" as="geometry">
            <mxPoint x="-400" y="-560" as="sourcePoint" />
            <mxPoint x="-310" y="-600" as="targetPoint" />
          </mxGeometry>
        </mxCell>
        <mxCell id="ZbAeiwqcnRl_sLX5qr6F-136" value="many" style="edgeLabel;html=1;align=center;verticalAlign=middle;resizable=0;points=[];" vertex="1" connectable="0" parent="ZbAeiwqcnRl_sLX5qr6F-132">
          <mxGeometry x="-0.2738" y="-1" relative="1" as="geometry">
            <mxPoint as="offset" />
          </mxGeometry>
        </mxCell>
        <mxCell id="ZbAeiwqcnRl_sLX5qr6F-134" value="berada" style="rhombus;whiteSpace=wrap;html=1;" vertex="1" parent="WIyWlLk6GJQsqaUBKTNV-1">
          <mxGeometry x="-410" y="-600" width="80" height="80" as="geometry" />
        </mxCell>
        <mxCell id="ZbAeiwqcnRl_sLX5qr6F-135" value="" style="endArrow=none;html=1;entryX=0.5;entryY=0;entryDx=0;entryDy=0;exitX=0.5;exitY=0;exitDx=0;exitDy=0;" edge="1" parent="WIyWlLk6GJQsqaUBKTNV-1" source="ZbAeiwqcnRl_sLX5qr6F-66" target="ZbAeiwqcnRl_sLX5qr6F-134">
          <mxGeometry width="50" height="50" relative="1" as="geometry">
            <mxPoint x="-600" y="-640" as="sourcePoint" />
            <mxPoint x="-390" y="-660" as="targetPoint" />
            <Array as="points">
              <mxPoint x="-600" y="-640" />
              <mxPoint x="-370" y="-640" />
            </Array>
          </mxGeometry>
        </mxCell>
        <mxCell id="ZbAeiwqcnRl_sLX5qr6F-137" value="many" style="edgeLabel;html=1;align=center;verticalAlign=middle;resizable=0;points=[];" vertex="1" connectable="0" parent="ZbAeiwqcnRl_sLX5qr6F-135">
          <mxGeometry x="0.2703" y="-1" relative="1" as="geometry">
            <mxPoint as="offset" />
          </mxGeometry>
        </mxCell>
        <mxCell id="ZbAeiwqcnRl_sLX5qr6F-138" value="" style="endArrow=none;html=1;exitX=0.416;exitY=0.001;exitDx=0;exitDy=0;exitPerimeter=0;entryX=0.5;entryY=1;entryDx=0;entryDy=0;" edge="1" parent="WIyWlLk6GJQsqaUBKTNV-1" target="ZbAeiwqcnRl_sLX5qr6F-140">
          <mxGeometry width="50" height="50" relative="1" as="geometry">
            <mxPoint x="-130.08000000000004" y="-590" as="sourcePoint" />
            <mxPoint x="-280" y="-730" as="targetPoint" />
            <Array as="points">
              <mxPoint x="-130" y="-680.06" />
              <mxPoint x="-280" y="-680" />
            </Array>
          </mxGeometry>
        </mxCell>
        <mxCell id="ZbAeiwqcnRl_sLX5qr6F-161" value="many" style="edgeLabel;html=1;align=center;verticalAlign=middle;resizable=0;points=[];" vertex="1" connectable="0" parent="ZbAeiwqcnRl_sLX5qr6F-138">
          <mxGeometry x="0.2795" relative="1" as="geometry">
            <mxPoint as="offset" />
          </mxGeometry>
        </mxCell>
        <mxCell id="ZbAeiwqcnRl_sLX5qr6F-139" value="" style="endArrow=none;html=1;exitX=0.416;exitY=0.001;exitDx=0;exitDy=0;exitPerimeter=0;entryX=0.5;entryY=1;entryDx=0;entryDy=0;" edge="1" parent="WIyWlLk6GJQsqaUBKTNV-1" target="ZbAeiwqcnRl_sLX5qr6F-141">
          <mxGeometry width="50" height="50" relative="1" as="geometry">
            <mxPoint x="-110" y="-590" as="sourcePoint" />
            <mxPoint x="40" y="-720" as="targetPoint" />
            <Array as="points">
              <mxPoint x="-109.76" y="-680" />
              <mxPoint x="40" y="-680" />
            </Array>
          </mxGeometry>
        </mxCell>
        <mxCell id="ZbAeiwqcnRl_sLX5qr6F-142" value="many" style="edgeLabel;html=1;align=center;verticalAlign=middle;resizable=0;points=[];" vertex="1" connectable="0" parent="ZbAeiwqcnRl_sLX5qr6F-139">
          <mxGeometry x="0.2692" y="-4" relative="1" as="geometry">
            <mxPoint as="offset" />
          </mxGeometry>
        </mxCell>
        <mxCell id="ZbAeiwqcnRl_sLX5qr6F-140" value="berada" style="rhombus;whiteSpace=wrap;html=1;" vertex="1" parent="WIyWlLk6GJQsqaUBKTNV-1">
          <mxGeometry x="-320" y="-780" width="80" height="80" as="geometry" />
        </mxCell>
        <mxCell id="ZbAeiwqcnRl_sLX5qr6F-141" value="memiliki" style="rhombus;whiteSpace=wrap;html=1;" vertex="1" parent="WIyWlLk6GJQsqaUBKTNV-1">
          <mxGeometry y="-780" width="80" height="80" as="geometry" />
        </mxCell>
        <mxCell id="ZbAeiwqcnRl_sLX5qr6F-143" value="Wishlist" style="rounded=0;whiteSpace=wrap;html=1;" vertex="1" parent="WIyWlLk6GJQsqaUBKTNV-1">
          <mxGeometry x="-340" y="-890" width="120" height="60" as="geometry" />
        </mxCell>
        <mxCell id="ZbAeiwqcnRl_sLX5qr6F-144" value="" style="endArrow=none;html=1;entryX=0.5;entryY=1;entryDx=0;entryDy=0;exitX=0.5;exitY=0;exitDx=0;exitDy=0;" edge="1" parent="WIyWlLk6GJQsqaUBKTNV-1" source="ZbAeiwqcnRl_sLX5qr6F-140" target="ZbAeiwqcnRl_sLX5qr6F-143">
          <mxGeometry width="50" height="50" relative="1" as="geometry">
            <mxPoint x="-110" y="-760" as="sourcePoint" />
            <mxPoint x="-60" y="-810" as="targetPoint" />
          </mxGeometry>
        </mxCell>
        <mxCell id="ZbAeiwqcnRl_sLX5qr6F-159" value="many" style="edgeLabel;html=1;align=center;verticalAlign=middle;resizable=0;points=[];" vertex="1" connectable="0" parent="ZbAeiwqcnRl_sLX5qr6F-144">
          <mxGeometry x="-0.1832" y="-2" relative="1" as="geometry">
            <mxPoint as="offset" />
          </mxGeometry>
        </mxCell>
        <mxCell id="ZbAeiwqcnRl_sLX5qr6F-145" value="Kategori" style="rounded=0;whiteSpace=wrap;html=1;" vertex="1" parent="WIyWlLk6GJQsqaUBKTNV-1">
          <mxGeometry x="-20" y="-890" width="120" height="60" as="geometry" />
        </mxCell>
        <mxCell id="ZbAeiwqcnRl_sLX5qr6F-146" value="" style="endArrow=none;html=1;entryX=0.5;entryY=1;entryDx=0;entryDy=0;exitX=0.5;exitY=0;exitDx=0;exitDy=0;" edge="1" parent="WIyWlLk6GJQsqaUBKTNV-1" source="ZbAeiwqcnRl_sLX5qr6F-141" target="ZbAeiwqcnRl_sLX5qr6F-145">
          <mxGeometry width="50" height="50" relative="1" as="geometry">
            <mxPoint x="150" y="-730" as="sourcePoint" />
            <mxPoint x="200" y="-780" as="targetPoint" />
          </mxGeometry>
        </mxCell>
        <mxCell id="ZbAeiwqcnRl_sLX5qr6F-160" value="many" style="edgeLabel;html=1;align=center;verticalAlign=middle;resizable=0;points=[];" vertex="1" connectable="0" parent="ZbAeiwqcnRl_sLX5qr6F-146">
          <mxGeometry x="-0.0989" y="1" relative="1" as="geometry">
            <mxPoint as="offset" />
          </mxGeometry>
        </mxCell>
        <mxCell id="ZbAeiwqcnRl_sLX5qr6F-147" value="Id_User(FK)" style="ellipse;whiteSpace=wrap;html=1;" vertex="1" parent="WIyWlLk6GJQsqaUBKTNV-1">
          <mxGeometry x="-250" y="-830" width="120" height="80" as="geometry" />
        </mxCell>
        <mxCell id="ZbAeiwqcnRl_sLX5qr6F-148" value="Id_Produk(FK)" style="ellipse;whiteSpace=wrap;html=1;" vertex="1" parent="WIyWlLk6GJQsqaUBKTNV-1">
          <mxGeometry x="-430" y="-830" width="120" height="80" as="geometry" />
        </mxCell>
        <mxCell id="ZbAeiwqcnRl_sLX5qr6F-149" value="" style="endArrow=none;html=1;entryX=1;entryY=0;entryDx=0;entryDy=0;exitX=0.25;exitY=1;exitDx=0;exitDy=0;" edge="1" parent="WIyWlLk6GJQsqaUBKTNV-1" source="ZbAeiwqcnRl_sLX5qr6F-143" target="ZbAeiwqcnRl_sLX5qr6F-148">
          <mxGeometry width="50" height="50" relative="1" as="geometry">
            <mxPoint x="-290" y="-800" as="sourcePoint" />
            <mxPoint x="-360" y="-810" as="targetPoint" />
          </mxGeometry>
        </mxCell>
        <mxCell id="ZbAeiwqcnRl_sLX5qr6F-150" value="" style="endArrow=none;html=1;entryX=0;entryY=0;entryDx=0;entryDy=0;exitX=0.75;exitY=1;exitDx=0;exitDy=0;" edge="1" parent="WIyWlLk6GJQsqaUBKTNV-1" source="ZbAeiwqcnRl_sLX5qr6F-143" target="ZbAeiwqcnRl_sLX5qr6F-147">
          <mxGeometry width="50" height="50" relative="1" as="geometry">
            <mxPoint x="-250" y="-900" as="sourcePoint" />
            <mxPoint x="-260" y="-960" as="targetPoint" />
          </mxGeometry>
        </mxCell>
        <mxCell id="ZbAeiwqcnRl_sLX5qr6F-151" value="Kategori" style="ellipse;whiteSpace=wrap;html=1;" vertex="1" parent="WIyWlLk6GJQsqaUBKTNV-1">
          <mxGeometry x="-110" y="-830" width="120" height="80" as="geometry" />
        </mxCell>
        <mxCell id="ZbAeiwqcnRl_sLX5qr6F-152" value="Id_Produk" style="ellipse;whiteSpace=wrap;html=1;" vertex="1" parent="WIyWlLk6GJQsqaUBKTNV-1">
          <mxGeometry x="70" y="-830" width="120" height="80" as="geometry" />
        </mxCell>
        <mxCell id="ZbAeiwqcnRl_sLX5qr6F-153" value="" style="endArrow=none;html=1;entryX=0;entryY=0;entryDx=0;entryDy=0;exitX=0.75;exitY=1;exitDx=0;exitDy=0;" edge="1" parent="WIyWlLk6GJQsqaUBKTNV-1" source="ZbAeiwqcnRl_sLX5qr6F-145" target="ZbAeiwqcnRl_sLX5qr6F-152">
          <mxGeometry width="50" height="50" relative="1" as="geometry">
            <mxPoint x="-90" y="-810" as="sourcePoint" />
            <mxPoint x="-40" y="-860" as="targetPoint" />
          </mxGeometry>
        </mxCell>
        <mxCell id="ZbAeiwqcnRl_sLX5qr6F-154" value="" style="endArrow=none;html=1;entryX=1;entryY=0;entryDx=0;entryDy=0;exitX=0.25;exitY=1;exitDx=0;exitDy=0;" edge="1" parent="WIyWlLk6GJQsqaUBKTNV-1" source="ZbAeiwqcnRl_sLX5qr6F-145" target="ZbAeiwqcnRl_sLX5qr6F-151">
          <mxGeometry width="50" height="50" relative="1" as="geometry">
            <mxPoint x="-90" y="-770" as="sourcePoint" />
            <mxPoint x="-40" y="-820" as="targetPoint" />
          </mxGeometry>
        </mxCell>
        <mxCell id="ZbAeiwqcnRl_sLX5qr6F-155" value="&lt;u&gt;ID_Kategori&lt;/u&gt;" style="ellipse;whiteSpace=wrap;html=1;" vertex="1" parent="WIyWlLk6GJQsqaUBKTNV-1">
          <mxGeometry x="-20" y="-990" width="120" height="80" as="geometry" />
        </mxCell>
        <mxCell id="ZbAeiwqcnRl_sLX5qr6F-156" value="" style="endArrow=none;html=1;entryX=0.5;entryY=1;entryDx=0;entryDy=0;exitX=0.5;exitY=0;exitDx=0;exitDy=0;" edge="1" parent="WIyWlLk6GJQsqaUBKTNV-1" source="ZbAeiwqcnRl_sLX5qr6F-145" target="ZbAeiwqcnRl_sLX5qr6F-155">
          <mxGeometry width="50" height="50" relative="1" as="geometry">
            <mxPoint x="-80" y="-840" as="sourcePoint" />
            <mxPoint x="-30" y="-890" as="targetPoint" />
          </mxGeometry>
        </mxCell>
        <mxCell id="ZbAeiwqcnRl_sLX5qr6F-157" value="&lt;u&gt;Id_Wishlist&lt;/u&gt;" style="ellipse;whiteSpace=wrap;html=1;" vertex="1" parent="WIyWlLk6GJQsqaUBKTNV-1">
          <mxGeometry x="-340" y="-990" width="120" height="80" as="geometry" />
        </mxCell>
        <mxCell id="ZbAeiwqcnRl_sLX5qr6F-158" value="" style="endArrow=none;html=1;entryX=0.5;entryY=1;entryDx=0;entryDy=0;exitX=0.5;exitY=0;exitDx=0;exitDy=0;" edge="1" parent="WIyWlLk6GJQsqaUBKTNV-1" source="ZbAeiwqcnRl_sLX5qr6F-143" target="ZbAeiwqcnRl_sLX5qr6F-157">
          <mxGeometry width="50" height="50" relative="1" as="geometry">
            <mxPoint x="-440" y="-860" as="sourcePoint" />
            <mxPoint x="-390" y="-910" as="targetPoint" />
          </mxGeometry>
        </mxCell>
      </root>
    </mxGraphModel>
  </diagram>
</mxfile>
